<?xml version="1.0" encoding="UTF-8" standalone="no"?>
<!-- Created with Inkscape (http://www.inkscape.org/) -->

<svg
   version="1.1"
   id="svg18"
   width="288"
   height="183.26666"
   viewBox="0 0 288 183.26666"
   sodipodi:docname="DelveLogo.svg"
   inkscape:version="1.2.2 (b0a8486, 2022-12-01)"
   xmlns:inkscape="http://www.inkscape.org/namespaces/inkscape"
   xmlns:sodipodi="http://sodipodi.sourceforge.net/DTD/sodipodi-0.dtd"
   xmlns="http://www.w3.org/2000/svg"
   xmlns:svg="http://www.w3.org/2000/svg">
  <defs
     id="defs22">
    <clipPath
       clipPathUnits="userSpaceOnUse"
       id="clipPath38">
      <path
         d="m 654.488,1132.02 -90.383,-48.13 v -87.288 l 90.442,47.008 z M 412.07,917.582 238.484,825.309 v 85.175 l 173.586,92.446 v -27.262 l 38.875,-20.891 -38.875,-19.82 z"
         id="path36" />
    </clipPath>
    <linearGradient
       x1="0"
       y1="0"
       x2="1"
       y2="0"
       gradientUnits="userSpaceOnUse"
       gradientTransform="matrix(416.059,0,0,-416.059,238.486,978.665)"
       spreadMethod="pad"
       id="linearGradient50">
      <stop
         style="stop-opacity:1;stop-color:#346785"
         offset="0"
         id="stop40" />
      <stop
         style="stop-opacity:1;stop-color:#346785"
         offset="0.00000013"
         id="stop42" />
      <stop
         style="stop-opacity:1;stop-color:#215169"
         offset="0.6"
         id="stop44" />
      <stop
         style="stop-opacity:1;stop-color:#346785"
         offset="1"
         id="stop46" />
      <stop
         style="stop-opacity:1;stop-color:#346785"
         offset="1"
         id="stop48" />
    </linearGradient>
    <clipPath
       clipPathUnits="userSpaceOnUse"
       id="clipPath62">
      <path
         d="m 488.754,1228.76 v -32.45 l 29.105,15.46 z M 238.484,910.484 412.07,1002.93 v 5.6 l -71.746,40.66 -98.644,-51.065 -24.149,13.505 -80.332,-42.72 z m 416.004,221.536 -100.394,58.6 -65.34,-34.75 v -16.8 l 75.351,-43.71 v -11.47 z M 101.285,990.602 0,1049.75 l 166.66,86.38 v -84.7 l -11.176,-5.08 24.739,-13.84 z"
         id="path60" />
    </clipPath>
    <linearGradient
       x1="0"
       y1="0"
       x2="1"
       y2="0"
       gradientUnits="userSpaceOnUse"
       gradientTransform="matrix(654.487,0,0,-654.487,0,1069.62)"
       spreadMethod="pad"
       id="linearGradient70">
      <stop
         style="stop-opacity:1;stop-color:#6096be"
         offset="0"
         id="stop64" />
      <stop
         style="stop-opacity:1;stop-color:#4d83a7"
         offset="0.6"
         id="stop66" />
      <stop
         style="stop-opacity:1;stop-color:#6096be"
         offset="1"
         id="stop68" />
    </linearGradient>
    <clipPath
       clipPathUnits="userSpaceOnUse"
       id="clipPath82">
      <path
         d="m 166.66,1325.86 -73.6287,-38.94 79.9097,-46.08 70.063,40.75 z m 157.336,-172.15 21.668,11.58 v 40.3 l 35.914,-21.11 15.02,8.03 167.507,-97.15 -75.351,-36.68 z"
         id="path80" />
    </clipPath>
    <linearGradient
       x1="0"
       y1="0"
       x2="1"
       y2="0"
       gradientUnits="userSpaceOnUse"
       gradientTransform="matrix(200.715,-347.649,-347.649,-200.715,228.21,1364.97)"
       spreadMethod="pad"
       id="linearGradient92">
      <stop
         style="stop-opacity:1;stop-color:#66a061"
         offset="0"
         id="stop84" />
      <stop
         style="stop-opacity:1;stop-color:#4a7f4a"
         offset="0.4"
         id="stop86" />
      <stop
         style="stop-opacity:1;stop-color:#66a061"
         offset="1"
         id="stop88" />
      <stop
         style="stop-opacity:1;stop-color:#66a061"
         offset="1"
         id="stop90" />
    </linearGradient>
    <clipPath
       clipPathUnits="userSpaceOnUse"
       id="clipPath104">
      <path
         d="m 412.07,934.957 v -32.355 l -13.343,7.757 -81.067,-42.964 171.094,-98.68 v 125.062 z m -319.0387,163.003 7.8787,4.09 -7.8787,4.23 z m 395.7227,-39.28 -164.758,95.03 -6.5,-3.48 v -88.11 l 94.574,-53.59 v -32.862 l 76.684,-41.211 z m -349.164,63.42 -46.5587,25.02 v 139.8 l 79.9097,-46.08 -6.281,-3.66 v -89.58 -11.47 z"
         id="path102" />
    </clipPath>
    <linearGradient
       x1="0"
       y1="0"
       x2="1"
       y2="0"
       gradientUnits="userSpaceOnUse"
       gradientTransform="matrix(395.722,0,0,-395.722,93.0321,1027.82)"
       spreadMethod="pad"
       id="linearGradient114">
      <stop
         style="stop-opacity:1;stop-color:#4a7f4a"
         offset="0"
         id="stop106" />
      <stop
         style="stop-opacity:1;stop-color:#336338"
         offset="0.5"
         id="stop108" />
      <stop
         style="stop-opacity:1;stop-color:#4a7f4a"
         offset="1"
         id="stop110" />
      <stop
         style="stop-opacity:1;stop-color:#4a7f4a"
         offset="1"
         id="stop112" />
    </linearGradient>
    <clipPath
       clipPathUnits="userSpaceOnUse"
       id="clipPath126">
      <path
         d="m 238.484,825.309 -71.425,40.972 V 760.82 l 71.425,-40.816 z m 0,174.601 -20.953,11.72 -37.308,-19.837 v 40.717 l -13.563,7.59 v 197.08 l 71.824,-41.43 z"
         id="path124" />
    </clipPath>
    <linearGradient
       x1="0"
       y1="0"
       x2="1"
       y2="0"
       gradientUnits="userSpaceOnUse"
       gradientTransform="matrix(0,517.175,517.175,0,202.572,720.005)"
       spreadMethod="pad"
       id="linearGradient136">
      <stop
         style="stop-opacity:1;stop-color:#412744"
         offset="0"
         id="stop128" />
      <stop
         style="stop-opacity:1;stop-color:#2e1a31"
         offset="0.4"
         id="stop130" />
      <stop
         style="stop-opacity:1;stop-color:#412744"
         offset="1"
         id="stop132" />
      <stop
         style="stop-opacity:1;stop-color:#412744"
         offset="1"
         id="stop134" />
    </linearGradient>
    <clipPath
       clipPathUnits="userSpaceOnUse"
       id="clipPath148">
      <path
         d="m 331.301,859.527 -13.805,-6.867 0.164,14.735 -79.176,-42.086 V 720.004 l 107.18,56.566 v 74.676 z m 157.453,279.543 v 194.8 l -107.176,-57.73 v 0 -91.66 l 26.391,14.11 v -12.68 z m -250.27,56.68 V 999.91 l 3.196,-1.785 75.816,39.245 v 112.86 l 28.168,15.06 v 91.51 z M 381.578,795.523 v 35.008 L 413.27,812.25 Z"
         id="path146" />
    </clipPath>
    <linearGradient
       x1="0"
       y1="0"
       x2="1"
       y2="0"
       gradientUnits="userSpaceOnUse"
       gradientTransform="matrix(-196.731,386.106,386.106,196.731,461.985,833.883)"
       spreadMethod="pad"
       id="linearGradient156">
      <stop
         style="stop-opacity:1;stop-color:#2e1a31"
         offset="0"
         id="stop150" />
      <stop
         style="stop-opacity:1;stop-color:#1e1423"
         offset="0.4"
         id="stop152" />
      <stop
         style="stop-opacity:1;stop-color:#2e1a31"
         offset="1"
         id="stop154" />
    </linearGradient>
    <clipPath
       clipPathUnits="userSpaceOnUse"
       id="clipPath180">
      <path
         d="m 687.215,412.023 -90.383,-48.132 v -87.289 l 90.441,47.007 z M 444.797,197.582 271.215,105.309 v 85.179 l 173.582,92.442 v -27.258 l 38.875,-20.891 -38.875,-19.82 z"
         id="path178" />
    </clipPath>
    <linearGradient
       x1="0"
       y1="0"
       x2="1"
       y2="0"
       gradientUnits="userSpaceOnUse"
       gradientTransform="matrix(416.059,0,0,-416.059,271.213,258.66)"
       spreadMethod="pad"
       id="linearGradient192">
      <stop
         style="stop-opacity:1;stop-color:#346785"
         offset="0"
         id="stop182" />
      <stop
         style="stop-opacity:1;stop-color:#346785"
         offset="0.00000013"
         id="stop184" />
      <stop
         style="stop-opacity:1;stop-color:#215169"
         offset="0.6"
         id="stop186" />
      <stop
         style="stop-opacity:1;stop-color:#346785"
         offset="1"
         id="stop188" />
      <stop
         style="stop-opacity:1;stop-color:#346785"
         offset="1"
         id="stop190" />
    </linearGradient>
    <clipPath
       clipPathUnits="userSpaceOnUse"
       id="clipPath204">
      <path
         d="m 521.48,508.758 v -32.445 l 29.11,15.453 z M 271.215,190.488 444.797,282.93 v 5.601 l -71.746,40.66 -98.645,-51.07 -24.144,13.508 -80.336,-42.719 z m 416,221.535 -100.395,58.594 -65.34,-34.746 v -16.805 l 75.352,-43.699 V 363.891 Z M 134.012,270.602 32.7266,329.75 199.387,416.129 v -84.707 l -11.172,-5.07 24.734,-13.84 z"
         id="path202" />
    </clipPath>
    <linearGradient
       x1="0"
       y1="0"
       x2="1"
       y2="0"
       gradientUnits="userSpaceOnUse"
       gradientTransform="matrix(654.487,0,0,-654.487,32.7273,349.62)"
       spreadMethod="pad"
       id="linearGradient212">
      <stop
         style="stop-opacity:1;stop-color:#6096be"
         offset="0"
         id="stop206" />
      <stop
         style="stop-opacity:1;stop-color:#4d83a7"
         offset="0.6"
         id="stop208" />
      <stop
         style="stop-opacity:1;stop-color:#6096be"
         offset="1"
         id="stop210" />
    </linearGradient>
    <clipPath
       clipPathUnits="userSpaceOnUse"
       id="clipPath224">
      <path
         d="m 199.387,605.863 -73.629,-38.937 79.91,-46.09 70.062,40.754 z m 157.34,-172.152 21.664,11.578 v 40.297 l 35.914,-21.102 15.019,8.028 167.508,-97.149 -75.352,-36.683 z"
         id="path222" />
    </clipPath>
    <linearGradient
       x1="0"
       y1="0"
       x2="1"
       y2="0"
       gradientUnits="userSpaceOnUse"
       gradientTransform="matrix(200.715,-347.649,-347.649,-200.715,260.938,644.969)"
       spreadMethod="pad"
       id="linearGradient234">
      <stop
         style="stop-opacity:1;stop-color:#66a061"
         offset="0"
         id="stop226" />
      <stop
         style="stop-opacity:1;stop-color:#4a7f4a"
         offset="0.4"
         id="stop228" />
      <stop
         style="stop-opacity:1;stop-color:#66a061"
         offset="1"
         id="stop230" />
      <stop
         style="stop-opacity:1;stop-color:#66a061"
         offset="1"
         id="stop232" />
    </linearGradient>
    <clipPath
       clipPathUnits="userSpaceOnUse"
       id="clipPath246">
      <path
         d="M 444.797,214.961 V 182.602 L 431.453,190.359 350.387,147.398 521.48,48.7109 V 173.781 Z m -319.039,163.004 7.879,4.086 -7.879,4.226 z m 395.722,-39.285 -164.753,95.031 -6.504,-3.477 v -88.113 l 94.574,-53.59 v -32.859 l 76.683,-41.211 z m -349.16,63.418 -46.562,25.019 v 139.809 l 79.91,-46.09 -6.281,-3.656 v -89.578 -11.473 z"
         id="path244" />
    </clipPath>
    <linearGradient
       x1="0"
       y1="0"
       x2="1"
       y2="0"
       gradientUnits="userSpaceOnUse"
       gradientTransform="matrix(395.722,0,0,-395.722,125.759,307.82)"
       spreadMethod="pad"
       id="linearGradient256">
      <stop
         style="stop-opacity:1;stop-color:#4a7f4a"
         offset="0"
         id="stop248" />
      <stop
         style="stop-opacity:1;stop-color:#336338"
         offset="0.5"
         id="stop250" />
      <stop
         style="stop-opacity:1;stop-color:#4a7f4a"
         offset="1"
         id="stop252" />
      <stop
         style="stop-opacity:1;stop-color:#4a7f4a"
         offset="1"
         id="stop254" />
    </linearGradient>
    <clipPath
       clipPathUnits="userSpaceOnUse"
       id="clipPath268">
      <path
         d="m 271.215,105.309 -71.43,40.972 V 40.8203 L 271.215,0 Z m 0,174.601 -20.953,11.719 -37.313,-19.84 v 40.723 l -13.562,7.59 V 517.18 l 71.828,-41.43 z"
         id="path266" />
    </clipPath>
    <linearGradient
       x1="0"
       y1="0"
       x2="1"
       y2="0"
       gradientUnits="userSpaceOnUse"
       gradientTransform="matrix(0,517.175,517.175,0,235.3,3.05e-5)"
       spreadMethod="pad"
       id="linearGradient278">
      <stop
         style="stop-opacity:1;stop-color:#412744"
         offset="0"
         id="stop270" />
      <stop
         style="stop-opacity:1;stop-color:#2e1a31"
         offset="0.4"
         id="stop272" />
      <stop
         style="stop-opacity:1;stop-color:#412744"
         offset="1"
         id="stop274" />
      <stop
         style="stop-opacity:1;stop-color:#412744"
         offset="1"
         id="stop276" />
    </linearGradient>
    <clipPath
       clipPathUnits="userSpaceOnUse"
       id="clipPath290">
      <path
         d="m 364.027,139.531 -13.804,-6.871 0.164,14.738 -79.172,-42.089 V 0 L 378.391,56.5703 V 131.25 Z M 521.48,419.066 V 613.867 L 414.305,556.145 v 0 -91.661 l 26.39,14.106 V 465.914 Z M 271.215,475.75 V 279.91 l 3.191,-1.789 75.817,39.25 v 112.863 l 28.168,15.055 v 91.516 z M 414.305,75.5195 V 110.531 L 445.996,92.25 Z"
         id="path288" />
    </clipPath>
    <linearGradient
       x1="0"
       y1="0"
       x2="1"
       y2="0"
       gradientUnits="userSpaceOnUse"
       gradientTransform="matrix(-196.731,386.106,386.106,196.731,494.713,113.88)"
       spreadMethod="pad"
       id="linearGradient298">
      <stop
         style="stop-opacity:1;stop-color:#2e1a31"
         offset="0"
         id="stop292" />
      <stop
         style="stop-opacity:1;stop-color:#1e1423"
         offset="0.4"
         id="stop294" />
      <stop
         style="stop-opacity:1;stop-color:#2e1a31"
         offset="1"
         id="stop296" />
    </linearGradient>
  </defs>
  <sodipodi:namedview
     id="namedview20"
     pagecolor="#ffffff"
     bordercolor="#000000"
     borderopacity="0.25"
     inkscape:showpageshadow="2"
     inkscape:pageopacity="0.0"
     inkscape:pagecheckerboard="true"
     inkscape:deskcolor="#d1d1d1"
     showgrid="false"
     showguides="false"
     inkscape:zoom="1.4879605"
     inkscape:cx="150.87766"
     inkscape:cy="164.65491"
     inkscape:window-width="1920"
     inkscape:window-height="1200"
     inkscape:window-x="0"
     inkscape:window-y="0"
     inkscape:window-maximized="0"
     inkscape:current-layer="g26">
    <inkscape:page
       x="0"
       y="0"
       id="page24"
       width="288"
       height="183.26666" />
  </sodipodi:namedview>
  <g
     id="g26"
     inkscape:groupmode="layer"
     inkscape:label="Page 1"
     transform="matrix(1.3333333,0,0,-1.3333333,0,183.26667)">
    <g
       id="g28"
       transform="matrix(0.1,0,0,0.1,-164.46749,-52.514557)">
      <path
         d="m 3775.9758,1029.4806 c -19.09,6.207 -28.64,11.699 -28.64,16.472 0,9.547 7.16,14.321 21.48,14.321 14.33,0 21.49,-5.965 21.49,-17.903 h 14.32 c 0,21.485 -11.94,32.227 -35.81,32.227 -23.87,0 -35.8,-9.547 -35.8,-28.645 0,-11.461 9.54,-20.293 28.64,-26.5 19.1,-6.207 28.65,-11.695 28.65,-16.469 0,-9.55 -7.16,-14.324 -21.49,-14.324 -14.32,0 -21.48,5.969 -21.48,17.903 h -14.32 c 0,-21.485 11.93,-32.223 35.8,-32.223 23.87,0 35.81,9.547 35.81,28.644 0,11.458 -9.55,20.29 -28.65,26.497 z m -123.89,30.793 h 28.65 v -85.934 h 14.32 v 85.934 h 28.65 v 14.324 h -71.62 z m -42.97,0 c 14.33,0 21.49,-7.161 21.49,-21.485 h 14.32 c 0,23.871 -11.93,35.809 -35.81,35.809 -23.87,0 -35.8,-11.938 -35.8,-35.809 v -28.644 c 0,-23.871 11.93,-35.805 35.8,-35.805 23.88,0 35.81,11.934 35.81,35.805 h -14.32 c 0,-14.325 -7.16,-21.485 -21.49,-21.485 -14.32,0 -21.48,7.16 -21.48,21.485 v 28.644 c 0,14.324 7.16,21.485 21.48,21.485 z m -114.58,-85.934 h 64.45 v 14.32 h -50.13 v 35.809 h 42.97 v 14.32 h -42.97 v 21.485 h 50.13 v 14.324 h -64.45 z m -85.94,85.934 h 28.65 v -85.934 h 14.32 v 85.934 h 28.65 v 14.324 h -71.62 z m -28.64,-85.934 h 14.32 v 100.258 h -14.32 z m -28.65,64.449 h -42.96 v 35.809 h -14.33 v -100.258 h 14.33 v 50.129 h 42.96 v -50.129 h 14.33 v 100.258 h -14.33 z m -107.42,21.485 c 14.33,0 21.49,-7.161 21.49,-21.485 h 14.32 c 0,23.871 -11.94,35.809 -35.81,35.809 -23.87,0 -35.8,-11.938 -35.8,-35.809 v -28.644 c 0,-23.871 11.93,-35.805 35.8,-35.805 23.87,0 35.81,11.934 35.81,35.805 h -14.32 c 0,-14.325 -7.16,-21.485 -21.49,-21.485 -14.32,0 -21.48,7.16 -21.48,21.485 v 28.644 c 0,14.324 7.16,21.485 21.48,21.485 z m -85.93,-42.969 h -21.49 v 42.969 h 21.49 c 14.32,0 21.48,-7.161 21.48,-21.485 0,-14.32 -7.16,-21.484 -21.48,-21.484 z m 35.8,21.484 c 0,23.871 -11.93,35.809 -35.8,35.809 h -35.81 v -100.258 h 14.32 v 28.644 h 20.56 l 16.54,-28.644 h 16.54 l -17.62,30.508 c 14.18,4.199 21.27,15.515 21.27,33.941 z m -136.35,-28.644 14.61,42.254 14.61,-42.254 z m 22.13,64.453 h -15.04 l -0.07,-0.215 -34.45,-100.043 h 15.11 l 7.38,21.48 h 39.1 l 7.38,-21.48 h 15.11 l -34.45,100.043 z m -129.26,-50.129 h 28.64 v -14.324 c 0,-14.325 -7.16,-21.485 -21.48,-21.485 -14.33,0 -21.49,7.16 -21.49,21.485 v 28.644 c 0,14.324 7.16,21.485 21.49,21.485 7.16,0 12.53,-1.79 16.11,-5.372 l 10.74,10.743 c -5.97,5.968 -14.92,8.953 -26.85,8.953 -23.87,0 -35.81,-11.938 -35.81,-35.809 v -28.644 c 0,-23.871 11.94,-35.805 35.81,-35.805 23.87,0 35.8,11.934 35.8,35.805 v 28.644 h -42.96 z m -57.3,7.16 -42.96,42.969 h -14.33 v -100.258 h 14.33 v 79.918 l 42.96,-42.969 v -36.949 h 14.33 v 100.258 h -14.33 z m -85.93,-57.289 h 14.32 v 100.258 h -14.32 z m -28.65,57.289 -42.97,42.969 h -14.32 v -100.258 h 14.32 v 79.918 l 42.97,-42.969 v -36.949 h 14.33 v 100.258 h -14.33 z m -85.93,0 -42.97,42.969 h -14.323 v -100.258 h 14.323 v 79.918 l 42.97,-42.969 v -36.949 h 14.32 v 100.258 h -14.32 z m -122.035,-21.484 14.609,42.254 14.609,-42.254 z m 22.129,64.453 h -15.039 l -0.071,-0.215 -34.445,-100.043 h 15.109 l 7.375,21.48 h 39.102 l 7.379,-21.48 h 15.109 l -34.445,100.043 z m -100.618,0 h -14.324 v -100.258 h 57.293 v 14.32 h -42.969 z m -64.453,-57.293 h -21.484 v 42.969 h 21.484 c 14.325,0 21.485,-7.161 21.485,-21.485 0,-14.32 -7.16,-21.484 -21.485,-21.484 z m 0,57.293 h -35.804 v -100.258 h 14.32 v 28.644 h 21.484 c 23.871,0 35.809,11.934 35.809,35.805 0,23.871 -11.938,35.809 -35.809,35.809 z m 1377.137,97.312 h -190.2 v 135.859 h 163.03 v 54.34 h -163.03 v 81.52 h 190.2 v 54.34 h -244.55 v -380.402 h 244.55 z m -332.58,326.059 -102.17,-296.17 -102.17,296.17 h -57.33 l 130.7,-379.586 0.27,-0.816 h 57.06 l 0.27,0.816 130.7,379.586 z m -238.03,-326.059 h -163.03 v 326.059 h -54.35 v -380.402 h 217.38 z m -271.72,0 h -190.2 v 135.859 h 163.03 v 54.34 h -163.03 v 81.52 h 190.2 v 54.34 h -244.55 v -380.402 h 244.55 z m -353.236,81.519 c 0,-54.35 -27.172,-81.519 -81.516,-81.519 h -81.516 v 271.719 h 81.516 c 54.344,0 81.516,-27.17 81.516,-81.52 z m 54.346,108.68 c 0,90.58 -45.288,135.86 -135.862,135.86 h -135.859 v -380.402 h 135.859 c 90.574,0 135.862,45.285 135.862,135.862 v 108.68"
         style="fill:#231f20;fill-opacity:1;fill-rule:nonzero;stroke:none"
         id="path30" />
      <g
         id="g32"
         transform="translate(1644.6258,188.8786)">
        <g
           id="g34"
           clip-path="url(#clipPath38)">
          <path
             d="m 654.488,1132.02 -90.383,-48.13 v -87.288 l 90.442,47.008 z M 412.07,917.582 238.484,825.309 v 85.175 l 173.586,92.446 v -27.262 l 38.875,-20.891 -38.875,-19.82 v -17.375"
             style="fill:url(#linearGradient50);fill-opacity:1;fill-rule:nonzero;stroke:none"
             id="path52" />
        </g>
      </g>
      <path
         d="m 1745.9108,1179.4806 -101.285,59.148 v -87.641 l 101.285,-58.101 z m 137.199,-80.118 v -85.175 l -101.285,58.097 v 85.504 l 101.285,-58.426"
         style="fill:#4c83a7;fill-opacity:1;fill-rule:nonzero;stroke:none"
         id="path54" />
      <g
         id="g56"
         transform="translate(1644.6258,188.8786)">
        <g
           id="g58"
           clip-path="url(#clipPath62)">
          <path
             d="m 488.754,1228.76 v -32.45 l 29.105,15.46 z M 238.484,910.484 412.07,1002.93 v 5.6 l -71.746,40.66 -98.644,-51.065 -24.149,13.505 -80.332,-42.72 z m 416.004,221.536 -100.394,58.6 -65.34,-34.75 v -16.8 l 75.351,-43.71 v -11.47 z M 101.285,990.602 0,1049.75 l 166.66,86.38 v -84.7 l -11.176,-5.08 24.739,-13.84 -78.938,-41.908"
             style="fill:url(#linearGradient70);fill-opacity:1;fill-rule:nonzero;stroke:none"
             id="path72" />
        </g>
      </g>
      <path
         d="m 2162.4848,1400.6486 -29.105,-15.46 v -40.44 l 29.105,15.48 z m -380.66,-242.86 v -45.836 l -35.914,-19.066 v 86.594 l 78.938,41.908 v -40.717 l -43.024,-22.883"
         style="fill:#215169;fill-opacity:1;fill-rule:nonzero;stroke:none"
         id="path74" />
      <g
         id="g76"
         transform="translate(1644.6258,188.8786)">
        <g
           id="g78"
           clip-path="url(#clipPath82)">
          <path
             d="m 166.66,1325.86 -73.6287,-38.94 79.9097,-46.08 70.063,40.75 z m 157.336,-172.15 21.668,11.58 v 40.3 l 35.914,-21.11 15.02,8.03 167.507,-97.15 -75.351,-36.68 -164.758,95.03"
             style="fill:url(#linearGradient92);fill-opacity:1;fill-rule:nonzero;stroke:none"
             id="path94" />
        </g>
      </g>
      <path
         d="m 2208.7308,1159.9526 v 124.286 l -75.351,-36.68 v 0 -124.223 z m 0,-38.808 v -123.422 l -75.351,-40.129 v 125.062 l 75.351,38.489"
         style="fill:#336338;fill-opacity:1;fill-rule:nonzero;stroke:none"
         id="path96" />
      <g
         id="g98"
         transform="translate(1644.6258,188.8786)">
        <g
           id="g100"
           clip-path="url(#clipPath104)">
          <path
             d="m 412.07,934.957 v -32.355 l -13.343,7.757 -81.067,-42.964 171.094,-98.68 v 125.062 z m -319.0387,163.003 7.8787,4.09 -7.8787,4.23 z m 395.7227,-39.28 -164.758,95.03 -6.5,-3.48 v -88.11 l 94.574,-53.59 v -32.862 l 76.684,-41.211 z m -349.164,63.42 -46.5587,25.02 v 139.8 l 79.9097,-46.08 -6.281,-3.66 v -89.58 -11.47 l -27.07,-14.03"
             style="fill:url(#linearGradient114);fill-opacity:1;fill-rule:nonzero;stroke:none"
             id="path116" />
        </g>
      </g>
      <path
         d="m 1784.2158,1310.9786 -7.781,4.18 -38.7777,-20 7.8787,-4.23 z m 349.164,-228.323 -76.684,41.18 38.875,19.82 37.809,-20.32 37.715,18.328 37.636,-20.519 -75.351,-38.489"
         style="fill:#214d29;fill-opacity:1;fill-rule:nonzero;stroke:none"
         id="path118" />
      <g
         id="g120"
         transform="translate(1644.6258,188.8786)">
        <g
           id="g122"
           clip-path="url(#clipPath126)">
          <path
             d="m 238.484,825.309 -71.425,40.972 V 760.82 l 71.425,-40.816 z m 0,174.601 -20.953,11.72 -37.308,-19.837 v 40.717 l -13.563,7.59 v 197.08 l 71.824,-41.43 V 999.91"
             style="fill:url(#linearGradient136);fill-opacity:1;fill-rule:nonzero;stroke:none"
             id="path138" />
        </g>
      </g>
      <path
         d="m 1990.2898,1445.6786 -69.816,43.9 -109.188,-63.52 71.824,-41.43 z m 35.914,19.34 -71.648,42.11 109.316,56.3 69.508,-40.68 -107.176,-57.73"
         style="fill:#57375b;fill-opacity:1;fill-rule:nonzero;stroke:none"
         id="path140" />
      <g
         id="g142"
         transform="translate(1644.6258,188.8786)">
        <g
           id="g144"
           clip-path="url(#clipPath148)">
          <path
             d="m 331.301,859.527 -13.805,-6.867 0.164,14.735 -79.176,-42.086 V 720.004 l 107.18,56.566 v 74.676 z m 157.453,279.543 v 194.8 l -107.176,-57.73 v 0 -91.66 l 26.391,14.11 v -12.68 z m -250.27,56.68 V 999.91 l 3.196,-1.785 75.816,39.245 v 112.86 l 28.168,15.06 v 91.51 z M 381.578,795.523 v 35.008 L 413.27,812.25 Z"
             style="fill:url(#linearGradient156);fill-opacity:1;fill-rule:nonzero;stroke:none"
             id="path158" />
        </g>
      </g>
      <path
         d="m 2026.2038,1019.4096 -35.914,20.715 v -34.617 l 35.914,-21.106 z m 0,353.949 -35.914,21.11 v 51.21 l -35.734,22.47 v 38.98 l 71.648,-42.11 v -91.66"
         style="fill:#1e1423;fill-opacity:1;fill-rule:nonzero;stroke:none"
         id="path160" />
      <path
         d="m 1811.2858,1228.9786 -11.176,6.25 11.176,5.08 z"
         style="fill:#000000;fill-opacity:1;fill-rule:nonzero;stroke:none"
         id="path162" />
      <path
         d="m 1975.9268,1048.4056 -13.641,7.868 -0.164,-14.735 z"
         style="fill:#000000;fill-opacity:1;fill-rule:nonzero;stroke:none"
         id="path164" />
      <path
         d="m 2043.3528,1099.2376 13.343,7.223 v -14.98 z"
         style="fill:#000000;fill-opacity:1;fill-rule:nonzero;stroke:none"
         id="path166" />
      <path
         d="m 2052.5948,1374.7886 v 12.68 l -11.371,-6.08 z"
         style="fill:#000000;fill-opacity:1;fill-rule:nonzero;stroke:none"
         id="path168" />
      <path
         d="m 1962.1218,1250.9986 22.828,-12.93 -22.828,-11.82 z"
         style="fill:#000000;fill-opacity:1;fill-rule:nonzero;stroke:none"
         id="path170" />
      <g
         id="g284" />
    </g>
  </g>
</svg>
