<?xml version="1.0" encoding="UTF-8" standalone="no"?>
<!-- Generator: Adobe Illustrator 27.2.0, SVG Export Plug-In . SVG Version: 6.00 Build 0)  -->

<svg
   version="1.1"
   id="Layer_1"
   x="0px"
   y="0px"
   viewBox="0 0 288 216"
   style="enable-background:new 0 0 288 216;"
   xml:space="preserve"
   sodipodi:docname="logosvg.svg"
   inkscape:version="1.2.2 (b0a8486, 2022-12-01)"
   xmlns:inkscape="http://www.inkscape.org/namespaces/inkscape"
   xmlns:sodipodi="http://sodipodi.sourceforge.net/DTD/sodipodi-0.dtd"
   xmlns="http://www.w3.org/2000/svg"
   xmlns:svg="http://www.w3.org/2000/svg"><defs
   id="defs189" /><sodipodi:namedview
   id="namedview187"
   pagecolor="#ffffff"
   bordercolor="#000000"
   borderopacity="0.25"
   inkscape:showpageshadow="2"
   inkscape:pageopacity="0.0"
   inkscape:pagecheckerboard="0"
   inkscape:deskcolor="#d1d1d1"
   showgrid="false"
   inkscape:zoom="2.6501023"
   inkscape:cx="170.9368"
   inkscape:cy="100.37348"
   inkscape:window-width="1516"
   inkscape:window-height="908"
   inkscape:window-x="0"
   inkscape:window-y="25"
   inkscape:window-maximized="0"
   inkscape:current-layer="g184" />
<style
   type="text/css"
   id="style2">
	.st0{fill:url(#SVGID_1_);}
	.st1{fill:#4985A4;}
	.st2{fill:url(#SVGID_00000173139520721164143480000016973157783365365128_);}
	.st3{fill:#055569;}
	.st4{fill:url(#SVGID_00000016042924913770681350000006896821345789018498_);}
	.st5{fill:#38663D;}
	.st6{fill:url(#SVGID_00000075157773116674921800000018323421356431730603_);}
	.st7{fill:#1A502C;}
	.st8{fill:none;}
	.st9{fill:url(#SVGID_00000111153052763951733790000002820828314901409192_);}
	.st10{fill:#5F425F;}
	.st11{fill:url(#SVGID_00000096778227107484597670000013882972024096326538_);}
	.st12{fill:#1F0726;}
	.st13{fill:url(#SVGID_00000157993483097920116420000013226851582626758301_);}
	.st14{fill:url(#SVGID_00000011720204128397509730000016030128996418165387_);}
	.st15{fill:url(#SVGID_00000059286935457622270640000014498011290545674372_);}
	.st16{fill:url(#SVGID_00000008147851983414456870000015783402048634305971_);}
	.st17{fill:url(#SVGID_00000098215345156524969330000014802550720104452012_);}
	.st18{fill:url(#SVGID_00000012466215010992786850000014463837144428687544_);}
</style>
<g
   id="g184">
	<g
   id="g92"
   transform="matrix(1.326682,0,0,1.3631633,-46.853537,16.680781)">
		<path
   d="m 137.88,59.4 c 0,-9.06 -4.53,-13.59 -13.59,-13.59 H 110.7 v 38.04 h 13.59 c 9.06,0 13.59,-4.53 13.59,-13.59 z m -5.44,10.87 c 0,5.43 -2.72,8.15 -8.15,8.15 h -8.15 V 51.25 h 8.15 c 5.43,0 8.15,2.72 8.15,8.15 z m 35.33,8.15 H 148.75 V 64.84 h 16.3 V 59.4 h -16.3 v -8.15 h 19.02 v -5.43 h -24.45 v 38.04 h 24.45 z m 27.17,0 h -16.3 v -32.6 h -5.43 v 38.04 h 21.74 v -5.44 z m 23.8,-32.6 -10.22,29.62 -10.22,-29.62 h -5.73 l 13.07,37.96 0.03,0.08 h 5.71 l 0.03,-0.08 13.07,-37.96 z M 252,78.42 H 232.98 V 64.84 h 16.3 V 59.4 h -16.3 V 51.25 H 252 V 45.82 H 227.55 V 83.86 H 252 Z m -137.71,9.74 h -3.58 v 10.03 h 1.43 v -2.86 h 2.15 c 2.39,0 3.58,-1.19 3.58,-3.58 0,-2.4 -1.2,-3.59 -3.58,-3.59 z m 0,5.72 h -2.15 v -4.3 h 2.15 c 1.43,0 2.15,0.72 2.15,2.15 -0.01,1.44 -0.72,2.15 -2.15,2.15 z m 6.44,-5.72 h -1.43 v 10.03 h 5.73 v -1.43 h -4.3 z m 10.06,0 h -1.5 l -0.01,0.02 -3.44,10 h 1.51 l 0.74,-2.15 H 132 l 0.74,2.15 h 1.51 l -3.44,-10 z m -2.21,6.44 1.46,-4.23 1.46,4.23 z m 12.2,-2.15 -4.3,-4.3 h -1.43 v 10.03 h 1.43 v -7.99 l 4.3,4.3 v 3.7 h 1.43 V 88.16 h -1.43 z m 8.6,0 -4.3,-4.3 h -1.43 v 10.03 h 1.43 v -7.99 l 4.3,4.3 v 3.7 h 1.43 V 88.16 h -1.43 z m 2.86,5.73 h 1.43 V 88.16 h -1.43 z m 8.6,-5.73 -4.3,-4.3 h -1.43 v 10.03 h 1.43 v -7.99 l 4.3,4.3 v 3.7 h 1.43 V 88.16 h -1.43 z m 5.72,0.72 h 2.86 v 1.43 c 0,1.43 -0.72,2.15 -2.15,2.15 -1.43,0 -2.15,-0.72 -2.15,-2.15 v -2.86 c 0,-1.43 0.72,-2.15 2.15,-2.15 0.72,0 1.25,0.18 1.61,0.54 l 1.07,-1.07 c -0.6,-0.6 -1.49,-0.9 -2.69,-0.9 -2.39,0 -3.58,1.19 -3.58,3.58 v 2.86 c 0,2.39 1.19,3.58 3.58,3.58 2.39,0 3.58,-1.19 3.58,-3.58 v -2.86 h -4.3 v 1.43 z m 12.93,-5.01 h -1.5 l -0.01,0.02 -3.44,10 h 1.51 l 0.74,-2.15 h 3.91 l 0.74,2.15 h 1.51 l -3.44,-10 z m -2.21,6.44 1.46,-4.23 1.46,4.23 z m 13.63,-2.86 c 0,-2.39 -1.19,-3.58 -3.58,-3.58 h -3.58 v 10.03 h 1.43 v -2.86 h 2.06 l 1.65,2.86 h 1.65 l -1.76,-3.05 c 1.42,-0.43 2.13,-1.56 2.13,-3.4 z m -3.58,2.14 h -2.15 v -4.3 h 2.15 c 1.43,0 2.15,0.72 2.15,2.15 0,1.44 -0.72,2.15 -2.15,2.15 z m 8.6,-4.29 c 1.43,0 2.15,0.72 2.15,2.15 h 1.43 c 0,-2.39 -1.19,-3.58 -3.58,-3.58 -2.39,0 -3.58,1.19 -3.58,3.58 v 2.86 c 0,2.39 1.19,3.58 3.58,3.58 2.39,0 3.58,-1.19 3.58,-3.58 h -1.43 c 0,1.43 -0.72,2.15 -2.15,2.15 -1.43,0 -2.15,-0.72 -2.15,-2.15 v -2.86 c 0,-1.44 0.71,-2.15 2.15,-2.15 z m 10.74,2.15 h -4.3 v -3.58 h -1.43 v 10.03 h 1.43 v -5.01 h 4.3 v 5.01 h 1.43 V 88.16 h -1.43 z m 2.86,6.44 h 1.43 V 88.16 h -1.43 z m 2.87,-8.59 h 2.86 v 8.59 h 1.43 v -8.59 h 2.86 v -1.43 h -7.16 v 1.43 z m 8.59,8.59 h 6.45 v -1.43 h -5.01 v -3.58 h 4.3 v -1.43 h -4.3 v -2.15 h 5.01 v -1.43 h -6.45 z m 11.46,-8.59 c 1.43,0 2.15,0.72 2.15,2.15 h 1.43 c 0,-2.39 -1.19,-3.58 -3.58,-3.58 -2.39,0 -3.58,1.19 -3.58,3.58 v 2.86 c 0,2.39 1.19,3.58 3.58,3.58 2.39,0 3.58,-1.19 3.58,-3.58 h -1.43 c 0,1.43 -0.72,2.15 -2.15,2.15 -1.43,0 -2.15,-0.72 -2.15,-2.15 v -2.86 c 0,-1.44 0.72,-2.15 2.15,-2.15 z m 4.3,0 h 2.86 v 8.59 h 1.43 v -8.59 h 2.86 v -1.43 h -7.16 v 1.43 z m 12.39,3.08 c -1.91,-0.62 -2.86,-1.17 -2.86,-1.65 0,-0.95 0.72,-1.43 2.15,-1.43 1.43,0 2.15,0.6 2.15,1.79 H 252 c 0,-2.15 -1.19,-3.22 -3.58,-3.22 -2.39,0 -3.58,0.95 -3.58,2.86 0,1.15 0.95,2.03 2.86,2.65 1.91,0.62 2.86,1.17 2.86,1.65 0,0.95 -0.72,1.43 -2.15,1.43 -1.43,0 -2.15,-0.6 -2.15,-1.79 h -1.43 c 0,2.15 1.19,3.22 3.58,3.22 2.39,0 3.58,-0.95 3.58,-2.86 0.01,-1.15 -0.94,-2.03 -2.85,-2.65 z"
   id="path4" />
		<g
   id="g90">
			<g
   id="g28">
				<linearGradient
   id="SVGID_1_"
   gradientUnits="userSpaceOnUse"
   x1="59.848598"
   y1="78.861198"
   x2="101.4545"
   y2="78.861198">
					<stop
   offset="1.318911e-07"
   style="stop-color:#2D6B84"
   id="stop6" />
					<stop
   offset="0.6"
   style="stop-color:#055569"
   id="stop8" />
					<stop
   offset="1"
   style="stop-color:#2D6B84"
   id="stop10" />
				</linearGradient>
				<path
   class="st0"
   d="M 77.21,84.97 59.85,94.2 v -8.52 l 17.36,-9.24 v 2.73 l 3.89,2.09 -3.89,1.98 z m 24.24,-21.44 -9.04,4.81 v 8.73 l 9.04,-4.7 z"
   id="path13"
   style="fill:url(#SVGID_1_)" />
				<path
   class="st1"
   d="M 59.85,85.68 V 94.2 L 49.72,88.39 V 79.84 Z M 46.13,77.67 36,71.75 v 8.76 l 10.13,5.81 z"
   id="path15" />
				
					<linearGradient
   id="SVGID_00000145038455816279292560000018182326616074359175_"
   gradientUnits="userSpaceOnUse"
   x1="36"
   y1="69.765602"
   x2="101.4487"
   y2="69.765602">
					<stop
   offset="0"
   style="stop-color:#5E97BA"
   id="stop17" />
					<stop
   offset="0.6"
   style="stop-color:#4985A4"
   id="stop19" />
					<stop
   offset="1"
   style="stop-color:#5E97BA"
   id="stop21" />
				</linearGradient>
				<path
   style="fill:url(#SVGID_00000145038455816279292560000018182326616074359175_)"
   d="M 46.13,77.67 36,71.75 52.67,63.11 v 8.47 l -1.12,0.51 2.47,1.38 z m 55.32,-14.14 -10.04,-5.86 -6.53,3.47 v 1.68 l 7.53,4.37 v 1.15 z m -41.6,22.15 17.36,-9.24 v -0.56 l -7.17,-4.07 -9.86,5.11 -2.41,-1.35 -8.03,4.27 z M 84.88,53.85 v 3.24 l 2.91,-1.55 z"
   id="path24" />
				<path
   class="st3"
   d="m 49.72,79.84 v 4.58 l -3.59,1.91 v -8.66 l 7.89,-4.19 v 4.07 z M 87.79,55.55 84.88,57.1 v 4.04 l 2.91,-1.55 z"
   id="path26" />
			</g>
			<g
   id="g52">
				
					<linearGradient
   id="SVGID_00000069393055951963629840000012907701786316599736_"
   gradientUnits="userSpaceOnUse"
   x1="58.820999"
   y1="40.230801"
   x2="78.892502"
   y2="74.995697">
					<stop
   offset="0"
   style="stop-color:#6E9C6C"
   id="stop30" />
					<stop
   offset="0.4"
   style="stop-color:#538052"
   id="stop32" />
					<stop
   offset="1"
   style="stop-color:#6E9C6C"
   id="stop34" />
				</linearGradient>
				<path
   style="fill:url(#SVGID_00000069393055951963629840000012907701786316599736_)"
   d="m 68.4,61.36 2.17,-1.16 v -4.03 l 3.59,2.11 1.5,-0.8 16.75,9.71 -7.53,3.67 z m -15.73,-17.22 -7.36,3.89 7.99,4.61 7.01,-4.08 z"
   id="path37" />
				<path
   class="st5"
   d="m 92.41,83.5 v 12.34 l -7.53,4.01 v -12.5 z m 0,-3.88 V 67.19 l -7.53,3.67 v 0 12.42 z"
   id="path39" />
				
					<linearGradient
   id="SVGID_00000001641646628948360470000008824844438671869606_"
   gradientUnits="userSpaceOnUse"
   x1="45.3032"
   y1="73.945801"
   x2="84.875397"
   y2="73.945801">
					<stop
   offset="0"
   style="stop-color:#538052"
   id="stop41" />
					<stop
   offset="0.5"
   style="stop-color:#38663D"
   id="stop43" />
					<stop
   offset="1"
   style="stop-color:#538052"
   id="stop45" />
				</linearGradient>
				<path
   style="fill:url(#SVGID_00000001641646628948360470000008824844438671869606_)"
   d="M 49.96,64.52 45.3,62.02 V 48.04 l 7.99,4.61 -0.63,0.37 v 8.96 1.15 z m 34.92,6.34 -16.48,-9.5 -0.65,0.35 v 8.81 l 9.46,5.36 v 3.29 l 7.67,4.12 z M 45.3,66.93 46.09,66.52 45.3,66.1 Z m 31.91,16.3 v 1.74 1.5 l -1.33,-0.78 -8.11,4.3 17.11,9.87 V 87.35 Z"
   id="path48" />
				<path
   class="st7"
   d="m 84.88,87.35 -7.67,-4.12 3.89,-1.98 3.78,2.03 3.77,-1.83 3.76,2.05 z M 49.96,64.52 49.18,64.1 l -3.88,2 0.79,0.42 z"
   id="path50" />
			</g>
			<g
   id="g88">
				<polygon
   class="st8"
   points="52.67,52.28 68.4,61.36 "
   id="polygon54" />
				
					<linearGradient
   id="SVGID_00000070799627818114129680000010406430931256024460_"
   gradientUnits="userSpaceOnUse"
   x1="56.257198"
   y1="104.7273"
   x2="56.257198"
   y2="53.0098">
					<stop
   offset="0"
   style="stop-color:#492C49"
   id="stop56" />
					<stop
   offset="0.4"
   style="stop-color:#341736"
   id="stop58" />
					<stop
   offset="1"
   style="stop-color:#492C49"
   id="stop60" />
				</linearGradient>
				<path
   style="fill:url(#SVGID_00000070799627818114129680000010406430931256024460_)"
   d="m 59.85,76.74 -2.1,-1.17 -3.73,1.98 V 73.48 L 52.66,72.72 V 53.01 l 7.18,4.14 v 19.59 z m 0,17.46 -7.14,-4.1 v 10.55 l 7.14,4.08 z"
   id="path63" />
				<path
   class="st10"
   d="M 74.16,49.11 67,44.9 l 10.93,-5.63 6.95,4.07 z m -3.59,1.94 -6.98,-4.39 -10.92,6.35 7.18,4.14 z"
   id="path65" />
				
					<linearGradient
   id="SVGID_00000170246507821986069000000013950855762411673216_"
   gradientUnits="userSpaceOnUse"
   x1="82.198502"
   y1="93.339401"
   x2="62.525501"
   y2="54.728802">
					<stop
   offset="0"
   style="stop-color:#341736"
   id="stop67" />
					<stop
   offset="0.4"
   style="stop-color:#1F0726"
   id="stop69" />
					<stop
   offset="1"
   style="stop-color:#341736"
   id="stop71" />
				</linearGradient>
				<path
   style="fill:url(#SVGID_00000170246507821986069000000013950855762411673216_)"
   d="m 74.16,97.18 v -3.5 l 3.17,1.83 z M 59.85,57.15 v 19.58 l 0.32,0.18 7.58,-3.92 V 61.7 l 2.82,-1.51 v -9.15 z m 25.03,5.67 V 43.34 l -10.72,5.77 v 0 9.17 l 2.64,-1.41 v 1.27 z m -15.75,27.95 -1.38,0.69 0.02,-1.47 -7.92,4.21 v 10.53 L 70.57,99.07 V 91.6 Z"
   id="path74" />
				<path
   class="st12"
   d="M 74.16,58.28 70.57,56.17 V 51.05 L 67,48.8 v -3.9 l 7.16,4.21 z m 0,35.39 -3.59,-2.07 v 3.46 l 3.59,2.11 z"
   id="path76" />
				<polygon
   points="52.67,71.59 52.67,72.72 51.55,72.09 "
   id="polygon78" />
				<polygon
   points="67.75,91.46 69.13,90.77 67.77,89.99 "
   id="polygon80" />
				<polygon
   points="77.21,86.47 75.87,85.69 77.21,84.97 "
   id="polygon82" />
				<polygon
   points="75.66,57.48 76.8,58.14 76.8,56.87 "
   id="polygon84" />
				<polygon
   points="67.75,72.99 67.75,70.52 70.03,71.81 "
   id="polygon86" />
			</g>
		</g>
	</g>
	
</g>
</svg>
